<?xml version="1.0" encoding="UTF-8" standalone="no"?>
<svg
   xmlns:dc="http://purl.org/dc/elements/1.1/"
   xmlns:cc="http://creativecommons.org/ns#"
   xmlns:rdf="http://www.w3.org/1999/02/22-rdf-syntax-ns#"
   xmlns:svg="http://www.w3.org/2000/svg"
   xmlns="http://www.w3.org/2000/svg"
   version="1.1"
   id="SVGRoot"
   viewBox="0 0 12 12"
   height="12px"
   width="12px">
  <defs
     id="defs14995" />
  <metadata
     id="metadata14998">
    <rdf:RDF>
      <cc:Work
         rdf:about="">
        <dc:format>image/svg+xml</dc:format>
        <dc:type
           rdf:resource="http://purl.org/dc/dcmitype/StillImage" />
        <dc:title></dc:title>
      </cc:Work>
    </rdf:RDF>
  </metadata>
  <g
     id="layer1">
    <g
       transform="scale(0.75)"
       id="layer1-5">
      <g
         transform="matrix(0.18716524,0,0,-0.18716614,-0.10418385,16.180513)"
         id="g4240">
        <g
           transform="scale(0.1)"
           id="g4242">
          <path
             id="path4244"
             style="fill:#d52735;fill-opacity:1;fill-rule:evenodd;stroke:none"
             d="M 433,9.64453 C 669.059,9.64453 860.426,201.012 860.426,437.07 860.426,673.133 669.059,864.5 433,864.5 196.934,864.5 5.56641,673.133 5.56641,437.07 5.56641,201.012 196.934,9.64453 433,9.64453" />
          <path
             id="path4246"
             style="fill:#d52735;fill-opacity:1;fill-rule:evenodd;stroke:none"
             d="M 433,45.9961 C 648.98,45.9961 824.07,221.09 824.07,437.07 824.07,653.059 648.98,828.148 433,828.148 217.012,828.148 41.9219,653.059 41.9219,437.07 41.9219,221.09 217.012,45.9961 433,45.9961" />
          <path
             id="path4248"
             style="fill:#9f1d2b;fill-opacity:1;fill-rule:evenodd;stroke:none"
             d="m 231.395,285.789 352.886,352.883 c 13.657,13.66 36,13.66 49.664,0 l 0.653,-0.656 c 13.66,-13.657 13.66,-36.004 0.004,-49.661 L 281.715,235.473 c -13.66,-13.66 -36.004,-13.66 -49.66,0 l -0.66,0.652 c -13.657,13.66 -13.657,36.004 0,49.664" />
          <path
             id="path4250"
             style="fill:#9f1d2b;fill-opacity:1;fill-rule:evenodd;stroke:none"
             d="M 281.715,638.672 634.598,285.789 c 13.656,-13.656 13.656,-36.004 0,-49.664 l -0.657,-0.652 c -13.66,-13.66 -36.003,-13.66 -49.66,0 L 231.395,588.355 c -13.661,13.657 -13.661,36.004 0,49.661 l 0.656,0.656 c 13.66,13.66 36.004,13.66 49.664,0" />
        </g>
      </g>
    </g>
  </g>
</svg>
