<?xml version="1.0" encoding="UTF-8" standalone="no"?>
<svg
   xmlns:dc="http://purl.org/dc/elements/1.1/"
   xmlns:cc="http://creativecommons.org/ns#"
   xmlns:rdf="http://www.w3.org/1999/02/22-rdf-syntax-ns#"
   xmlns:svg="http://www.w3.org/2000/svg"
   xmlns="http://www.w3.org/2000/svg"
   version="1.1"
   id="SVGRoot"
   viewBox="0 0 12 12"
   height="12px"
   width="12px">
  <defs
     id="defs14995" />
  <metadata
     id="metadata14998">
    <rdf:RDF>
      <cc:Work
         rdf:about="">
        <dc:format>image/svg+xml</dc:format>
        <dc:type
           rdf:resource="http://purl.org/dc/dcmitype/StillImage" />
        <dc:title></dc:title>
      </cc:Work>
    </rdf:RDF>
  </metadata>
  <g
     id="layer1">
    <g
       id="g4195"
       transform="matrix(0.14037395,0,0,-0.14037457,-0.03887698,12.064156)">
      <g
         id="g4197"
         transform="scale(0.1)">
        <path
           d="m 430.199,4.57031 c 236.063,0 427.43,191.36369 427.43,427.42969 0,236.059 -191.367,427.426 -427.43,427.426 C 194.137,859.426 2.76953,668.059 2.76953,432 2.76953,195.934 194.137,4.57031 430.199,4.57031"
           style="fill:#b4b4b4;fill-opacity:1;fill-rule:evenodd;stroke:none"
           id="path4199" />
        <path
           d="m 430.199,40.9219 c 215.985,0 391.078,175.0901 391.078,391.0781 0,215.98 -175.093,391.074 -391.078,391.074 C 214.215,823.074 39.1211,647.98 39.1211,432 39.1211,216.012 214.215,40.9219 430.199,40.9219"
           style="fill:#c7c7c7;fill-opacity:1;fill-rule:evenodd;stroke:none"
           id="path4201" />
      </g>
    </g>
  </g>
</svg>
