<?xml version="1.0" encoding="utf-8"?>
<!-- Generator: Adobe Illustrator 22.0.1, SVG Export Plug-In . SVG Version: 6.00 Build 0)  -->
<svg version="1.1" id="Layer_1" xmlns="http://www.w3.org/2000/svg" xmlns:xlink="http://www.w3.org/1999/xlink" x="0px" y="0px"
	 viewBox="0 0 1024 1024" style="enable-background:new 0 0 1024 1024;" xml:space="preserve">
<style type="text/css">
	.st0{fill:url(#SVGID_1_);}
	.st1{fill:#464A4C;}
</style>
<g id="Circle">
	
		<radialGradient id="SVGID_1_" cx="534.9938" cy="-559.1426" r="954.2032" gradientTransform="matrix(1 0 0 1 0 455.9999)" gradientUnits="userSpaceOnUse">
		<stop  offset="0" style="stop-color:#FBFAFA"/>
		<stop  offset="1" style="stop-color:#D5D5D5"/>
	</radialGradient>
	<circle class="st0" cx="512" cy="512" r="447"/>
</g>
<path class="st1" d="M359.2,485.7l47.4,19.7c-5.3,13.5-9.6,27.4-12.8,41.6l-1.8,8.2l68,68.1l8.2-1.8c14.2-3.1,28.1-7.4,41.6-12.8
	l19.7,47.4c0.6,1.6,2.4,2.3,4,1.7c0.4-0.2,0.7-0.4,1-0.7l29.7-29.7c9.8-9.8,15-23.3,14.3-37.2l-1.1-19.1
	c55.1-40.7,110.8-112,125.9-236.4c1.5-11.2-6.3-21.5-17.5-23.1c-1.8-0.3-3.7-0.3-5.5,0c-124.4,15.3-195.7,71-236.4,125.9l-19.1-1
	c-13.8-0.8-27.3,4.4-37.2,14.1l-29.7,29.7c-1.3,1.1-1.4,3-0.4,4.3C358.2,485.2,358.6,485.5,359.2,485.7z M549.9,413.2
	c14.4-14.4,37.7-14.3,52.1,0.1c14.4,14.4,14.3,37.7-0.1,52.1c-14.4,14.3-37.6,14.3-52,0C535.5,451,535.5,427.7,549.9,413.2
	C549.9,413.3,549.9,413.2,549.9,413.2z M350.3,628.6c-7.9-2.8-16.3-3.4-24.5-2c-1.5,0.3-3-0.1-4.1-1.2c-1.3-1.3-1.7-3.3-0.9-5
	c8.7-18.7,31.8-56.4,73.7-26c0.9,0.8,0.9,2.1,0.2,2.9c-0.1,0.1-0.1,0.1-0.2,0.2c-11.4,8.9-17.8,22.8-17.3,37.2
	c0.1,1.7,1.5,3.1,3.2,3.2c14.4,0.6,28.2-5.7,37.2-16.9c0.7-0.9,2-1,2.9-0.3c0.1,0.1,0.2,0.2,0.3,0.3c5.8,6.9,21.8,29.5,4.1,51.3
	c-7.7,9.3-18.8,15.2-30.8,16.4c-17.2,1.8-48.9,7.4-61.9,22.3c-1.6,1.9-4.4,2.1-6.3,0.5c-0.7-0.6-1.2-1.3-1.4-2.2
	C319.8,693.7,312.7,658.8,350.3,628.6z"/>
</svg>
