<?xml version="1.0" encoding="UTF-8" standalone="no"?>
<!-- Generator: Adobe Illustrator 22.0.1, SVG Export Plug-In . SVG Version: 6.00 Build 0)  -->

<svg
   xmlns:dc="http://purl.org/dc/elements/1.1/"
   xmlns:cc="http://creativecommons.org/ns#"
   xmlns:rdf="http://www.w3.org/1999/02/22-rdf-syntax-ns#"
   xmlns:svg="http://www.w3.org/2000/svg"
   xmlns="http://www.w3.org/2000/svg"
   xmlns:sodipodi="http://sodipodi.sourceforge.net/DTD/sodipodi-0.dtd"
   xmlns:inkscape="http://www.inkscape.org/namespaces/inkscape"
   version="1.1"
   id="Layer_1"
   x="0px"
   y="0px"
   viewBox="0 0 128 128"
   xml:space="preserve"
   sodipodi:docname="show-apps.svg"
   inkscape:version="0.92.3 (2405546, 2018-03-11)"
   width="128"
   height="128"><metadata
   id="metadata161"><rdf:RDF><cc:Work
       rdf:about=""><dc:format>image/svg+xml</dc:format><dc:type
         rdf:resource="http://purl.org/dc/dcmitype/StillImage" /><dc:title /></cc:Work></rdf:RDF></metadata><defs
   id="defs159" /><sodipodi:namedview
   pagecolor="#ffffff"
   bordercolor="#666666"
   borderopacity="1"
   objecttolerance="10"
   gridtolerance="10"
   guidetolerance="10"
   inkscape:pageopacity="0"
   inkscape:pageshadow="2"
   inkscape:window-width="1708"
   inkscape:window-height="906"
   id="namedview157"
   showgrid="false"
   inkscape:zoom="4.5254834"
   inkscape:cx="77.504145"
   inkscape:cy="66.6388"
   inkscape:window-x="0"
   inkscape:window-y="26"
   inkscape:window-maximized="1"
   inkscape:current-layer="Layer_1" />
<style
   type="text/css"
   id="style144">
	.st0{fill:url(#SVGID_1_);}
	.st1{fill:#464A4C;}
</style>
<g
   id="Circle"
   transform="matrix(0.13230121,0,0,0.13230121,-3.4679271,-3.345602)">
	
		<radialGradient
   id="SVGID_1_"
   cx="534.99377"
   cy="-559.14258"
   r="954.20319"
   gradientTransform="translate(0,455.9999)"
   gradientUnits="userSpaceOnUse">
		<stop
   offset="0"
   style="stop-color:#FBFAFA"
   id="stop146" />
		<stop
   offset="1"
   style="stop-color:#D5D5D5"
   id="stop148" />
	</radialGradient>
	<circle
   class="st0"
   cx="512"
   cy="512"
   r="447"
   id="circle151"
   style="fill:url(#SVGID_1_)" />
</g>
<path
   class="st1"
   d="m 44.054648,60.913084 6.271085,2.606314 c -0.701211,1.786085 -1.2701,3.625075 -1.693459,5.503737 l -0.23828,1.084873 8.99649,9.009722 1.084873,-0.238033 c 1.878687,-0.410126 3.717652,-0.979015 5.503738,-1.693459 l 2.606338,6.271085 c 0.07935,0.211667 0.317525,0.304293 0.529192,0.224973 0.05297,-0.02636 0.09265,-0.05297 0.132323,-0.09265 l 3.929344,-3.929344 c 1.296564,-1.29654 1.98452,-3.082626 1.891918,-4.921616 l -0.145629,-2.526944 c 7.289798,-5.384647 14.658965,-14.817727 16.656717,-31.27601 0.198361,-1.481767 -0.833509,-2.844469 -2.315277,-3.056137 -0.238033,-0.03967 -0.48952,-0.03967 -0.727652,0 -16.458282,2.024193 -25.891338,9.39336 -31.27601,16.656718 l -2.526944,-0.132322 c -1.825758,-0.105958 -3.611819,0.582121 -4.921591,1.865429 l -3.929368,3.929343 c -0.171995,0.145629 -0.185302,0.396919 -0.05297,0.568914 0.09265,0.07935 0.145629,0.119016 0.224973,0.145629 z m 25.229848,-9.591843 c 1.905126,-1.905151 4.987752,-1.891919 6.892879,0.01232 1.905151,1.905127 1.891919,4.987753 -0.01232,6.89288 -1.90515,1.891919 -4.974519,1.891919 -6.879671,0 -1.905126,-1.905127 -1.905126,-4.987753 0,-6.906112 0,0.01232 0,0 0,0 z M 42.877173,79.818917 c -1.045177,-0.370454 -2.156515,-0.449823 -3.241389,-0.264596 -0.198361,0.03967 -0.396894,-0.01232 -0.542424,-0.158688 -0.171995,-0.171996 -0.224973,-0.436591 -0.119016,-0.661516 1.151034,-2.47404 4.207195,-7.461767 9.750605,-3.439823 0.119016,0.105957 0.119016,0.277829 0.02636,0.383662 -0.01232,0.01232 -0.01232,0.01232 -0.02636,0.02636 -1.508232,1.177475 -2.35495,3.016465 -2.288813,4.921591 0.01232,0.224974 0.198361,0.410152 0.423383,0.423359 1.905127,0.07935 3.730884,-0.754116 4.921591,-2.235884 0.09265,-0.119017 0.264596,-0.132323 0.383687,-0.03967 0.01232,0.01232 0.02636,0.02636 0.03967,0.03967 0.767349,0.912879 2.884167,3.902904 0.542449,6.78707 -1.018712,1.230405 -2.487272,2.010961 -4.074873,2.169723 -2.275606,0.23828 -6.469546,0.97904 -8.189469,2.950328 -0.211667,0.251364 -0.582097,0.277829 -0.833485,0.06604 -0.09265,-0.07935 -0.158689,-0.171995 -0.185301,-0.291061 -0.621794,-2.063889 -1.561137,-6.681212 3.413383,-10.676692 z"
   id="path154"
   inkscape:connector-curvature="0"
   style="fill:#464a4c;stroke-width:0.1323012" />
</svg>