<?xml version="1.0" encoding="UTF-8" standalone="no"?>
<svg
   xmlns:dc="http://purl.org/dc/elements/1.1/"
   xmlns:cc="http://creativecommons.org/ns#"
   xmlns:rdf="http://www.w3.org/1999/02/22-rdf-syntax-ns#"
   xmlns:svg="http://www.w3.org/2000/svg"
   xmlns="http://www.w3.org/2000/svg"
   version="1.1"
   id="SVGRoot"
   viewBox="0 0 12 12"
   height="12px"
   width="12px">
  <defs
     id="defs14995" />
  <metadata
     id="metadata14998">
    <rdf:RDF>
      <cc:Work
         rdf:about="">
        <dc:format>image/svg+xml</dc:format>
        <dc:type
           rdf:resource="http://purl.org/dc/dcmitype/StillImage" />
        <dc:title></dc:title>
      </cc:Work>
    </rdf:RDF>
  </metadata>
  <g
     id="layer1">
    <g
       id="g4285"
       transform="matrix(0.14037391,0,0,-0.14037397,-0.13434219,12.06103)">
      <g
         id="g4287"
         transform="scale(0.1)">
        <path
           d="m 437.004,4.34766 c 236.059,0 427.426,191.36734 427.426,427.42934 0,236.063 -191.367,427.43 -427.426,427.43 C 200.938,859.207 9.57031,667.84 9.57031,431.777 9.57031,195.715 200.938,4.34766 437.004,4.34766"
           style="fill:#13c11e;fill-opacity:1;fill-rule:evenodd;stroke:none"
           id="path4289" />
        <path
           d="m 437.004,40.6992 c 215.984,0 391.074,175.0938 391.074,391.0778 0,215.985 -175.09,391.075 -391.074,391.075 -215.988,0 -391.0782,-175.09 -391.0782,-391.075 0,-215.984 175.0902,-391.0778 391.0782,-391.0778"
           style="fill:#39ea49;fill-opacity:1;fill-rule:evenodd;stroke:none"
           id="path4291" />
        <path
           d="m 321.367,649.883 267.199,0 c 35.579,0 64.692,-29.113 64.692,-64.695 l 0,-267.196 -331.891,331.891 z m 232.324,-436.211 -268.253,0 c -35.583,0 -64.692,29.109 -64.692,64.691 l 0,268.254 332.945,-332.945"
           style="fill:#0b7407;fill-opacity:1;fill-rule:evenodd;stroke:none"
           id="path4293" />
      </g>
    </g>
  </g>
</svg>
