<?xml version="1.0" encoding="UTF-8" standalone="no"?>
<svg
   xmlns:dc="http://purl.org/dc/elements/1.1/"
   xmlns:cc="http://creativecommons.org/ns#"
   xmlns:rdf="http://www.w3.org/1999/02/22-rdf-syntax-ns#"
   xmlns:svg="http://www.w3.org/2000/svg"
   xmlns="http://www.w3.org/2000/svg"
   version="1.1"
   id="SVGRoot"
   viewBox="0 0 12 12"
   height="12px"
   width="12px">
  <defs
     id="defs14995" />
  <metadata
     id="metadata14998">
    <rdf:RDF>
      <cc:Work
         rdf:about="">
        <dc:format>image/svg+xml</dc:format>
        <dc:type
           rdf:resource="http://purl.org/dc/dcmitype/StillImage" />
        <dc:title></dc:title>
      </cc:Work>
    </rdf:RDF>
  </metadata>
  <g
     id="layer1">
    <g
       id="g4371"
       transform="matrix(0.14037391,0,0,-0.14037461,-0.13434219,12.135385)">
      <g
         id="g4373"
         transform="scale(0.1)">
        <path
           d="M 437.004,9.64453 C 673.063,9.64453 864.43,201.012 864.43,437.07 864.43,673.133 673.063,864.5 437.004,864.5 200.938,864.5 9.57031,673.133 9.57031,437.07 9.57031,201.012 200.938,9.64453 437.004,9.64453"
           style="fill:#13c11e;fill-opacity:1;fill-rule:evenodd;stroke:none"
           id="path4375" />
        <path
           d="m 437.004,45.9961 c 215.984,0 391.074,175.0939 391.074,391.0739 0,215.989 -175.09,391.078 -391.074,391.078 C 221.016,828.148 45.9258,653.059 45.9258,437.07 45.9258,221.09 221.016,45.9961 437.004,45.9961"
           style="fill:#13c11e;fill-opacity:1;fill-rule:evenodd;stroke:none"
           id="path4377" />
        <path
           d="m 321.367,655.176 267.199,0 c 35.579,0 64.692,-29.11 64.692,-64.692 l 0,-267.195 -331.891,331.887 z m 232.324,-436.207 -268.253,0 c -35.583,0 -64.692,29.109 -64.692,64.691 l 0,268.254 332.945,-332.945"
           style="fill:#0b7407;fill-opacity:1;fill-rule:evenodd;stroke:none"
           id="path4379" />
      </g>
    </g>
  </g>
</svg>
