<?xml version="1.0" encoding="UTF-8" standalone="no"?>
<svg
   xmlns:dc="http://purl.org/dc/elements/1.1/"
   xmlns:cc="http://creativecommons.org/ns#"
   xmlns:rdf="http://www.w3.org/1999/02/22-rdf-syntax-ns#"
   xmlns:svg="http://www.w3.org/2000/svg"
   xmlns="http://www.w3.org/2000/svg"
   version="1.1"
   id="SVGRoot"
   viewBox="0 0 12 12"
   height="12px"
   width="12px">
  <defs
     id="defs14995">
    <linearGradient
       id="linearGradient4882">
      <stop
         id="stop4884"
         offset="0"
         style="stop-color:#728495;stop-opacity:1;" />
      <stop
         id="stop4886"
         offset="1"
         style="stop-color:#617c95;stop-opacity:0;" />
    </linearGradient>
    <linearGradient
       id="linearGradient4892">
      <stop
         id="stop4894"
         offset="0"
         style="stop-color:#2f3a42;stop-opacity:1;" />
      <stop
         id="stop4896"
         offset="1"
         style="stop-color:#1d242a;stop-opacity:1;" />
    </linearGradient>
  </defs>
  <metadata
     id="metadata14998">
    <rdf:RDF>
      <cc:Work
         rdf:about="">
        <dc:format>image/svg+xml</dc:format>
        <dc:type
           rdf:resource="http://purl.org/dc/dcmitype/StillImage" />
        <dc:title></dc:title>
      </cc:Work>
    </rdf:RDF>
  </metadata>
  <g
     id="layer1">
    <g
       id="g4491"
       transform="matrix(0.14037326,0,0,-0.14037461,-0.11794638,12.135385)">
      <g
         id="g4493"
         transform="scale(0.1)">
        <path
           d="m 435.832,9.64453 c 236.066,0 427.434,191.36747 427.434,427.42547 0,236.063 -191.368,427.43 -427.434,427.43 C 199.77,864.5 8.40234,673.133 8.40234,437.07 8.40234,201.012 199.77,9.64453 435.832,9.64453"
           style="fill:#fac536;fill-opacity:1;fill-rule:evenodd;stroke:none"
           id="path4495" />
        <path
           d="M 435.832,45.9961 C 651.82,45.9961 826.91,221.09 826.91,437.07 826.91,653.059 651.82,828.148 435.832,828.148 219.848,828.148 44.7578,653.059 44.7578,437.07 44.7578,221.09 219.848,45.9961 435.832,45.9961"
           style="fill:#fac536;fill-opacity:1;fill-rule:evenodd;stroke:none"
           id="path4497" />
        <path
           d="m 186.305,472.652 499.058,0 c 19.313,0 35.114,-15.8 35.114,-35.117 l 0,-0.93 c 0,-19.316 -15.801,-35.113 -35.114,-35.113 l -499.058,0 c -19.317,0 -35.114,15.797 -35.114,35.113 l 0,0.93 c 0,19.317 15.797,35.117 35.114,35.117"
           style="fill:#975914;fill-opacity:1;fill-rule:evenodd;stroke:none"
           id="path4499" />
      </g>
    </g>
  </g>
</svg>
